<?xml version="1.0" encoding="UTF-8"?>
<svg enable-background="new 0 0 50 50" version="1.1" viewBox="0 0 50 50" xmlns="http://www.w3.org/2000/svg" style="fill:aliceblue;">
 <path d="m25.142 0.14731c-13.855 0-25.039 11.413-25.039 25.551 0 11.242 7.1779 20.781 17.193 24.188 1.3354 0.17034 1.6693-0.51101 1.6693-1.1924v-4.4288c-7.0109 1.533-8.5133-3.4068-8.5133-3.4068-1.1685-2.8957-2.8378-3.7474-2.8378-3.7474-2.337-1.533 0.16693-1.533 0.16693-1.533 2.5039 0.17034 3.8393 2.5551 3.8393 2.5551 2.1701 3.9178 5.8424 2.7254 7.3448 2.0441 0.16693-1.7034 0.83464-2.7254 1.6693-3.4068-5.5086-0.68135-11.351-2.8957-11.351-12.605 0-2.7254 1.0016-5.1101 2.5039-6.8135-0.33385-0.68135-1.1685-3.2364 0.16693-6.8135 0 0 2.1701-0.68135 6.844 2.5551 2.0031-0.51101 4.1732-0.85169 6.3432-0.85169 2.1701 0 4.3401 0.34068 6.3432 0.85169 4.8409-3.2364 6.844-2.5551 6.844-2.5551 1.3354 3.5771 0.50078 6.1322 0.16693 6.8135 1.6693 1.7034 2.5039 4.0881 2.5039 6.8135 0 9.8796-5.8424 11.924-11.351 12.605 0.83464 0.85169 1.6693 2.3847 1.6693 4.7695v6.9839c0 0.68135 0.50078 1.533 1.6693 1.1924 10.016-3.4068 17.027-12.946 17.027-24.188 0.16693-13.968-11.017-25.38-24.872-25.38z" clip-rule="evenodd" fill-rule="evenodd" stroke-width="1.6862"/>
</svg>
